<?xml version="1.0" encoding="utf-8"?>
<!-- Generator: Adobe Illustrator 28.0.0, SVG Export Plug-In . SVG Version: 6.00 Build 0)  -->
<svg version="1.1" id="Layer_2_00000105389874320551424320000010048740372448641173_"
	 xmlns="http://www.w3.org/2000/svg" xmlns:xlink="http://www.w3.org/1999/xlink" x="0px" y="0px" viewBox="0 0 199.3 199.3"
	 style="enable-background:new 0 0 199.3 199.3;" xml:space="preserve">
<style type="text/css">
	.st0{fill:#FFF2DB;}
	.st1{fill:#003092;}
</style>
<g id="objects">
	<g>
		<path class="st0" d="M199.3,99.7c0,55-44.6,99.7-99.7,99.7l0,0c-55,0-99.7-44.6-99.7-99.7l0,0C0,44.6,44.6,0,99.7,0l0,0
			C154.7,0,199.3,44.6,199.3,99.7L199.3,99.7L199.3,99.7z"/>
		<path class="st1" d="M129.2,91.9l-1.7,13.3c-0.3,2.2-2.2,3.9-4.4,3.9h-21.6v55.7c-2.3,0.2-4.6,0.3-6.9,0.3
			c-5.2,0-10.3-0.5-15.2-1.5v-54.5H62.8c-1.5,0-2.8-1.2-2.8-2.8V89.7c0-1.5,1.2-2.8,2.8-2.8h16.6v-25c0-15.4,12.4-27.8,27.7-27.8
			h19.4c1.5,0,2.8,1.2,2.8,2.8v16.7c0,1.5-1.2,2.8-2.8,2.8h-13.8c-6.1,0-11.1,5-11.1,11.1v19.5h23.2
			C127.5,86.9,129.5,89.3,129.2,91.9L129.2,91.9z"/>
	</g>
</g>
</svg>
