<?xml version="1.0" encoding="utf-8"?>
<!-- Generator: Adobe Illustrator 28.0.0, SVG Export Plug-In . SVG Version: 6.00 Build 0)  -->
<svg version="1.1" id="Layer_2_00000147203798058348280810000009093150769883674505_"
	 xmlns="http://www.w3.org/2000/svg" xmlns:xlink="http://www.w3.org/1999/xlink" x="0px" y="0px" viewBox="0 0 199.3 199.3"
	 style="enable-background:new 0 0 199.3 199.3;" xml:space="preserve">
<style type="text/css">
	.st0{fill:#FFF2DB;}
	.st1{fill:#003092;}
</style>
<g id="objects">
	<g>
		<path class="st0" d="M199.3,99.7c0,55-44.6,99.7-99.7,99.7l0,0c-55,0-99.7-44.6-99.7-99.7l0,0C0,44.6,44.6,0,99.7,0l0,0
			C154.7,0,199.3,44.6,199.3,99.7L199.3,99.7L199.3,99.7z"/>
		<path class="st1" d="M126.7,47.4H72.6c-13.9,0-25.2,11.3-25.2,25.2v54.1c0,13.9,11.3,25.2,25.2,25.2h54.1
			c13.9,0,25.2-11.3,25.2-25.2V72.6C151.9,58.7,140.6,47.4,126.7,47.4z M142.9,124.9c0,9.9-8.1,18-18,18H74.4c-9.9,0-18-8.1-18-18
			V74.4c0-9.9,8.1-18,18-18h50.5c9.9,0,18,8.1,18,18V124.9z"/>
		<path class="st1" d="M99.7,72.6c-14.9,0-27,12.1-27,27s12.1,27,27,27s27-12.1,27-27S114.6,72.6,99.7,72.6z M99.7,117.7
			c-9.9,0-18-8.1-18-18s8.1-18,18-18s18,8.1,18,18S109.6,117.7,99.7,117.7z"/>
		<circle class="st1" cx="128.6" cy="70.8" r="5.4"/>
	</g>
</g>
</svg>
